<?xml version="1.0" standalone="no"?>
<!DOCTYPE svg PUBLIC "-//W3C//DTD SVG 20010904//EN"
 "http://www.w3.org/TR/2001/REC-SVG-20010904/DTD/svg10.dtd">
<svg version="1.0" xmlns="http://www.w3.org/2000/svg"
 width="128.000000pt" height="128.000000pt" viewBox="0 0 128.000000 128.000000"
 preserveAspectRatio="xMidYMid meet">
<metadata>
Created by potrace 1.11, written by Peter Selinger 2001-2013
</metadata>
<g transform="translate(0.000000,128.000000) scale(0.100000,-0.100000)"
fill="#000000" stroke="none">
<path d="M111 1266 c-6 -7 -18 -37 -27 -65 -8 -28 -24 -67 -36 -87 -12 -20
-27 -61 -34 -91 -12 -50 -11 -60 6 -92 17 -33 53 -65 74 -66 5 0 10 -10 11
-23 2 -26 18 -39 100 -82 101 -53 98 -48 73 -111 -28 -72 -28 -217 0 -305 49
-156 189 -285 353 -328 70 -18 228 -13 294 9 122 41 229 131 293 247 72 129
65 344 -15 471 -28 45 -26 51 10 38 31 -12 31 -12 49 59 27 104 6 211 -58 295
-89 117 -276 171 -413 119 -93 -35 -166 -100 -202 -179 -25 -54 -24 -62 12
-84 l31 -19 -39 -12 c-69 -23 -135 -64 -194 -122 -33 -31 -59 -61 -59 -67 0
-7 -26 3 -57 21 -32 17 -76 41 -98 51 -26 13 -35 22 -25 25 29 9 60 45 65 76
3 17 7 43 9 58 3 15 0 30 -5 34 -5 3 -7 10 -3 15 3 5 -4 26 -15 45 -12 19 -21
41 -21 48 0 8 -7 19 -15 26 -8 7 -12 16 -10 21 7 10 -19 74 -33 83 -5 3 -15 0
-21 -8z"/>
</g>
</svg>
